HIERARCHY
ROOT joint_Root
{
	OFFSET 0.0 0.0 0.0
	CHANNELS 6 Xposition Yposition Zposition Zrotation Xrotation Yrotation 
	JOINT Hips
	{
		OFFSET -17.1583 93.1646 452.98
		CHANNELS 6 Xposition Yposition Zposition Zrotation Xrotation Yrotation 
		JOINT Spine
		{
			OFFSET 15.7357 0.0 0.0
			CHANNELS 6 Xposition Yposition Zposition Zrotation Xrotation Yrotation 
			JOINT Chest
			{
				OFFSET 8.98455 -0.406207 0.0
				CHANNELS 6 Xposition Yposition Zposition Zrotation Xrotation Yrotation 
				JOINT Neck
				{
					OFFSET 16.3773 0.0 0.0
					CHANNELS 6 Xposition Yposition Zposition Zrotation Xrotation Yrotation 
					JOINT Head
					{
						OFFSET 6.45672 0.0 0.0
						CHANNELS 6 Xposition Yposition Zposition Zrotation Xrotation Yrotation 
						End Site
						{
							OFFSET 0.0 0.0 0.0
						}
					}
				}
				JOINT Shoulder_L
				{
					OFFSET 12.9942 -0.242716 4.98039
					CHANNELS 6 Xposition Yposition Zposition Zrotation Xrotation Yrotation 
					JOINT UpperArm_L
					{
						OFFSET 5.34809 0.0 0.0
						CHANNELS 6 Xposition Yposition Zposition Zrotation Xrotation Yrotation 
						JOINT LowerArm_L
						{
							OFFSET 24.3286 1.87007e-05 0.0
							CHANNELS 6 Xposition Yposition Zposition Zrotation Xrotation Yrotation 
							JOINT Hand_L
							{
								OFFSET 22.2916 0.0 0.0
								CHANNELS 6 Xposition Yposition Zposition Zrotation Xrotation Yrotation 
								End Site
								{
									OFFSET 0.0 0.0 0.0
								}
							}
						}
					}
				}
				JOINT Shoulder_R
				{
					OFFSET 12.9945 -0.242716 -4.98039
					CHANNELS 6 Xposition Yposition Zposition Zrotation Xrotation Yrotation 
					JOINT UpperArm_R
					{
						OFFSET -5.34813 0.0 0.0
						CHANNELS 6 Xposition Yposition Zposition Zrotation Xrotation Yrotation 
						JOINT LowerArm_R
						{
							OFFSET -24.3289 0.000322201 0.0
							CHANNELS 6 Xposition Yposition Zposition Zrotation Xrotation Yrotation 
							JOINT Hand_R
							{
								OFFSET -22.2915 -0.000108084 0.0
								CHANNELS 6 Xposition Yposition Zposition Zrotation Xrotation Yrotation 
								End Site
								{
									OFFSET 0.0 0.0 0.0
								}
							}
						}
					}
				}
			}
		}
		JOINT UpperLeg_L
		{
			OFFSET -2.19248 -6.46944 0.0
			CHANNELS 6 Xposition Yposition Zposition Zrotation Xrotation Yrotation 
			JOINT LowerLeg_L
			{
				OFFSET 39.0811 0.0 -1.23785e-05
				CHANNELS 6 Xposition Yposition Zposition Zrotation Xrotation Yrotation 
				JOINT Foot_L
				{
					OFFSET 40.9854 0.0 -1.26872e-05
					CHANNELS 6 Xposition Yposition Zposition Zrotation Xrotation Yrotation 
					JOINT Toes_L
					{
						OFFSET 11.7543 0.0 0.0
						CHANNELS 6 Xposition Yposition Zposition Zrotation Xrotation Yrotation 
						End Site
						{
							OFFSET 0.0 0.0 0.0
						}
					}
				}
			}
		}
		JOINT UpperLeg_R
		{
			OFFSET -2.19251 6.46944 0.0
			CHANNELS 6 Xposition Yposition Zposition Zrotation Xrotation Yrotation 
			JOINT LowerLeg_R
			{
				OFFSET -39.0811 -0.00228153 -0.0401928
				CHANNELS 6 Xposition Yposition Zposition Zrotation Xrotation Yrotation 
				JOINT Foot_R
				{
					OFFSET -40.9854 0.0 0.0
					CHANNELS 6 Xposition Yposition Zposition Zrotation Xrotation Yrotation 
					JOINT Toes_R
					{
						OFFSET -11.7543 0.0 0.0
						CHANNELS 6 Xposition Yposition Zposition Zrotation Xrotation Yrotation 
						End Site
						{
							OFFSET 0.0 0.0 0.0
						}
					}
				}
			}
		}
	}
}
MOTION
Frames:	5
Frame Time:	0.0333333
0.000000 0.000000 0.000000 0.000000 0.000000 -0.000000 -4.417650 89.355500 -529.565000 94.900500 -1.934680 -6.743230 15.735700 0.000005 -0.000001 123.985000 86.085500 -125.309000 8.984550 -0.406207 -0.000000 -1.221800 4.479060 -2.599830 16.377300 -0.000001 -0.000001 2.198220 2.317700 -2.701340 6.456720 -0.000001 -0.000000 -0.101647 -1.113150 -2.197020 12.994200 -0.242716 4.980390 -93.107000 7.640500 -67.791900 5.348090 -0.000007 -0.000001 -55.493200 -25.780500 15.105400 24.328600 0.000019 0.000005 17.617400 30.166000 -32.290200 22.291600 -0.000001 0.000005 55.957700 4.400600 18.213600 12.994500 -0.242716 -4.980390 88.647900 5.019050 -74.901600 -5.348130 -0.000001 -0.000004 -70.538600 10.720800 -11.603600 -24.328900 0.000322 -0.000009 5.182240 3.962730 -52.699800 -22.291500 -0.000108 -0.000004 48.719100 5.415960 -3.463290 -2.192480 -6.469440 -0.000000 179.862000 2.117010 -37.229600 39.081100 -0.000007 -0.000012 0.005795 -0.014405 21.915100 40.985400 -0.000006 -0.000013 -7.696550 12.466800 -64.314900 11.754300 -0.000000 0.000003 0.002250 0.109712 -12.127700 -2.192510 6.469440 -0.000001 172.984000 21.999000 -170.793000 -39.081100 -0.002282 -0.040193 -0.064841 0.283301 13.530500 -40.985400 0.000008 0.000006 -13.557300 -7.085020 -81.953200 -11.754300 -0.000006 -0.000006 -0.002772 0.205666 -8.228270
0.000000 0.000000 0.000000 0.000000 0.000000 -0.000000 -3.709020 88.800100 -526.185000 94.819500 -3.133800 -6.927360 15.735700 0.000005 -0.000001 129.295000 86.341100 -130.696000 8.984550 -0.406207 -0.000000 -2.045660 4.753120 -2.717790 16.377300 -0.000001 -0.000001 2.508700 2.661260 -2.698900 6.456720 -0.000001 -0.000000 0.481128 -0.615909 -2.037260 12.994200 -0.242716 4.980390 -93.283900 8.059950 -67.744000 5.348090 -0.000007 -0.000001 -56.653000 -25.295700 13.740300 24.328600 0.000019 0.000005 16.918500 29.996700 -31.316600 22.291600 -0.000001 0.000005 55.651300 4.405870 18.129300 12.994500 -0.242716 -4.980390 88.625900 5.119790 -74.954200 -5.348130 -0.000001 -0.000004 -70.415600 12.475200 -11.735500 -24.328900 0.000322 -0.000009 5.117110 4.010150 -52.018800 -22.291500 -0.000108 -0.000004 48.443000 5.414210 -3.405240 -2.192480 -6.469440 -0.000000 179.605000 0.789493 -36.764500 39.081100 -0.000007 -0.000012 0.006609 -0.014624 24.318100 40.985400 -0.000006 -0.000013 -10.683400 14.138800 -63.494800 11.754300 -0.000000 0.000003 0.002415 0.098125 -12.597500 -2.192510 6.469440 -0.000001 171.598000 20.370300 -169.961000 -39.081100 -0.002282 -0.040193 -0.074278 0.280159 15.483400 -40.985400 0.000008 0.000006 -14.772800 -6.923360 -81.511800 -11.754300 -0.000006 -0.000006 -0.000309 0.172718 -9.567710
0.000000 0.000000 0.000000 0.000000 0.000000 -0.000000 -2.765930 88.437700 -522.536000 95.277300 -3.600410 -7.323520 15.735700 0.000005 -0.000001 131.493000 86.902700 -133.047000 8.984550 -0.406207 -0.000000 -3.070370 4.249200 -2.996460 16.377300 -0.000001 -0.000001 2.874330 2.891300 -2.852370 6.456720 -0.000001 -0.000000 0.958707 0.167766 -1.915650 12.994200 -0.242716 4.980390 -93.517100 8.694720 -67.874600 5.348090 -0.000007 -0.000001 -58.120100 -23.778300 12.085000 24.328600 0.000019 0.000005 16.022100 30.308000 -29.641500 22.291600 -0.000001 0.000005 55.177800 4.418950 17.920300 12.994500 -0.242716 -4.980390 88.560200 5.338400 -74.882500 -5.348130 -0.000001 -0.000004 -70.269100 13.992000 -11.437200 -24.328900 0.000322 -0.000009 5.059160 4.127400 -50.896000 -22.291500 -0.000108 -0.000004 48.324400 5.417010 -3.498880 -2.192480 -6.469440 -0.000000 178.012000 1.178500 -38.420100 39.081100 -0.000007 -0.000012 0.061747 -0.106322 30.146000 40.985400 -0.000006 -0.000013 -7.025850 13.432300 -63.065300 11.754300 -0.000000 0.000003 0.002241 0.110209 -12.107600 -2.192510 6.469440 -0.000001 170.123000 18.191000 -170.151000 -39.081100 -0.002282 -0.040193 -0.075846 0.233476 18.731400 -40.985400 0.000008 0.000006 -15.652300 -8.333520 -80.295000 -11.754300 -0.000006 -0.000006 0.002197 0.112539 -12.009600
0.000000 0.000000 0.000000 0.000000 0.000000 -0.000000 -1.765920 88.236000 -518.536000 95.915600 -3.167690 -6.970000 15.735700 0.000005 -0.000001 127.157000 87.305300 -128.798000 8.984550 -0.406207 -0.000000 -3.422770 3.413600 -3.180630 16.377300 -0.000001 -0.000001 2.922040 2.861870 -2.971790 6.456720 -0.000001 -0.000000 1.515570 0.760225 -2.195590 12.994200 -0.242716 4.980390 -93.589000 9.074170 -68.312600 5.348090 -0.000007 -0.000001 -60.779100 -20.575700 9.302190 24.328600 0.000019 0.000005 14.363300 30.322900 -26.894900 22.291600 -0.000001 0.000005 54.170300 4.447670 17.457100 12.994500 -0.242716 -4.980390 88.646300 4.968550 -74.738100 -5.348130 -0.000001 -0.000004 -71.005300 14.445900 -10.338600 -24.328900 0.000322 -0.000009 5.072930 4.430910 -48.972000 -22.291500 -0.000108 -0.000004 48.091900 5.424690 -3.758850 -2.192480 -6.469440 -0.000000 176.596000 2.526770 -38.192600 39.081100 -0.000007 -0.000012 0.111784 -0.159935 34.950600 40.985400 -0.000006 -0.000013 -4.839710 12.993700 -65.127200 11.754300 -0.000000 0.000003 0.001958 0.122472 -11.610300 -2.192510 6.469440 -0.000001 168.963000 15.369100 -170.652000 -39.081100 -0.002282 -0.040193 -0.060743 0.145615 23.745000 -40.985400 0.000008 0.000006 -15.808700 -11.926300 -77.851500 -11.754300 -0.000006 -0.000006 0.000924 0.017357 -15.869200
0.000000 0.000000 0.000000 0.000000 0.000000 -0.000000 -0.818176 88.342300 -514.527000 96.329400 -2.587880 -6.864890 15.735700 0.000005 -0.000001 125.092000 87.701000 -126.705000 8.984550 -0.406207 -0.000000 -3.964720 2.806520 -3.129060 16.377300 -0.000001 -0.000001 3.145400 2.716920 -2.913030 6.456720 -0.000001 -0.000000 2.107570 1.172620 -2.854020 12.994200 -0.242716 4.980390 -93.476500 8.970600 -68.713800 5.348090 -0.000007 -0.000001 -64.339400 -15.709400 5.440620 24.328600 0.000019 0.000005 12.545800 31.176300 -23.261400 22.291600 -0.000001 0.000005 52.565900 4.478040 16.958500 12.994500 -0.242716 -4.980390 88.718700 4.554940 -74.270800 -5.348130 -0.000001 -0.000004 -71.248300 15.329000 -8.927950 -24.328900 0.000322 -0.000009 4.217470 4.206150 -45.162900 -22.291500 -0.000108 -0.000004 46.996400 5.443910 -4.423820 -2.192480 -6.469440 -0.000000 175.275000 3.773040 -36.707000 39.081100 -0.000007 -0.000012 0.157817 -0.208309 37.147800 40.985400 -0.000006 -0.000013 -2.665700 12.532000 -66.082200 11.754300 -0.000000 0.000003 0.001490 0.136891 -11.025500 -2.192510 6.469440 -0.000001 168.850000 12.536200 -173.243000 -39.081100 -0.002282 -0.040193 -0.003091 0.010736 30.766400 -40.985400 0.000008 0.000006 -14.004300 -17.466900 -72.518400 -11.754300 -0.000006 -0.000006 -0.010814 -0.109621 -21.040400
